<?xml version="1.0" encoding="utf-8"?>
<!-- Generator: Adobe Illustrator 25.3.1, SVG Export Plug-In . SVG Version: 6.00 Build 0)  -->
<svg version="1.1" id="Logo_FIXED" xmlns="http://www.w3.org/2000/svg" xmlns:xlink="http://www.w3.org/1999/xlink" x="0px" y="0px"
	 viewBox="0 0 400 400" style="enable-background:new 0 0 400 400;" xml:space="preserve">
<style type="text/css">
	.st0{fill:none;}
	.st1{fill:#FFFFFF;}
</style>
<rect class="st0" width="400" height="400"/>
<path class="st1" d="M125.2,362.5c150.3,0,232.4-124.5,232.4-232.4c0-3.5,0-7.1-0.2-10.6c16-11.6,29.8-25.9,40.8-42.3
	c-14.9,6.6-30.7,10.9-46.9,12.9c17.1-10.2,29.8-26.3,35.9-45.2c-16,9.5-33.6,16.2-51.9,19.8c-30.9-32.9-82.7-34.5-115.6-3.5
	c-21.2,20-30.2,49.7-23.6,78.1C130.4,136,69.2,104.9,27.7,53.9C6,91.2,17.1,139,53,163c-13-0.4-25.7-3.9-37.1-10.2c0,0.3,0,0.7,0,1
	c0,38.9,27.4,72.4,65.5,80.1c-12,3.3-24.6,3.8-36.9,1.4c10.7,33.3,41.4,56.1,76.3,56.7C92,314.7,56.2,327.1,19.4,327
	c-6.5,0-13-0.4-19.4-1.2C37.4,349.8,80.8,362.5,125.2,362.5"/>
</svg>
